<svg width="67" height="67" viewBox="0 0 67 67" fill="none" xmlns="http://www.w3.org/2000/svg">
<path d="M53.1297 66.4118H13.2824C5.94677 66.4118 0 60.4653 0 53.1294V13.2824C0 5.94662 5.94677 3.05176e-05 13.2824 3.05176e-05H53.1297C60.4652 3.05176e-05 66.4118 5.94662 66.4118 13.2824V53.1294C66.4118 60.4653 60.4652 66.4118 53.1297 66.4118Z" fill="url(#paint0_linear_82_80)"/>
<path d="M40.388 24.2327L31.7821 19.069C31.3764 18.8257 30.8745 18.8064 30.4513 19.0182L23.5806 22.4533C23.2552 22.616 23.2375 23.074 23.5497 23.2612L32.758 28.7866C33.0361 28.9531 33.2061 29.2534 33.2061 29.5776V53.2135C33.2061 53.5562 33.5668 53.7794 33.8735 53.626L40.7426 50.1914C41.2114 49.957 41.5073 49.4779 41.5073 48.9538V26.2103C41.5073 25.4 41.0826 24.6493 40.388 24.2327Z" fill="white"/>
<path d="M28.9735 32.6496L20.3674 27.4859C19.9618 27.2426 19.4599 27.2233 19.0368 27.4351L12.1662 30.8702C11.8405 31.0329 11.823 31.4909 12.1351 31.6781L21.3436 37.2032C21.6215 37.37 21.7915 37.6702 21.7915 37.9942V45.0271C21.7915 45.3701 22.1522 45.5932 22.4589 45.4396L29.3282 42.0051C29.797 41.7708 30.0929 41.2917 30.0929 40.7674V34.6269C30.0929 33.8169 29.6682 33.0662 28.9735 32.6496Z" fill="white"/>
<path d="M51.8024 15.8158L43.1965 10.6523C42.7908 10.4087 42.2889 10.3897 41.866 10.6012L34.9952 14.0366C34.6695 14.1993 34.652 14.6573 34.9642 14.8446L44.1727 20.3697C44.4505 20.5364 44.6205 20.8367 44.6205 21.1607V28.1936C44.6205 28.5365 44.9812 28.7594 45.2879 28.606L52.157 25.1715C52.6258 24.9372 52.922 24.4582 52.922 23.9342V17.7933C52.922 16.9833 52.497 16.2326 51.8024 15.8158Z" fill="white"/>
<defs>
<linearGradient id="paint0_linear_82_80" x1="3.07097" y1="3.07088" x2="58.2509" y2="58.2508" gradientUnits="userSpaceOnUse">
<stop stop-color="#A55BB4"/>
<stop offset="1" stop-color="#704EAC"/>
</linearGradient>
</defs>
</svg>
