<svg width="167" height="53" viewBox="0 0 167 53" fill="none" xmlns="http://www.w3.org/2000/svg">
<g clip-path="url(#clip0_74_40)">
<path d="M41.6556 52.0696H10.4139C4.66249 52.0696 0 47.4073 0 41.6557V10.4142C0 4.6626 4.66249 0.00025177 10.4139 0.00025177H41.6556C47.407 0.00025177 52.0693 4.6626 52.0693 10.4142V41.6557C52.0693 47.4073 47.407 52.0696 41.6556 52.0696Z" fill="url(#paint0_linear_74_40)"/>
<path d="M31.6657 18.9996L24.9183 14.951C24.6002 14.7603 24.2068 14.7451 23.8749 14.9112L18.488 17.6044C18.2329 17.732 18.219 18.0911 18.4638 18.2379L25.6835 22.57C25.9015 22.7005 26.0348 22.936 26.0348 23.1902V41.7216C26.0348 41.9903 26.3176 42.1653 26.5581 42.045L31.9437 39.3522C32.3113 39.1684 32.5433 38.7927 32.5433 38.3818V20.5501C32.5433 19.9148 32.2103 19.3262 31.6657 18.9996Z" fill="white"/>
<path d="M22.7163 25.5987L15.9687 21.5501C15.6507 21.3594 15.2572 21.3443 14.9255 21.5103L9.53869 24.2036C9.28336 24.3311 9.26959 24.6902 9.51435 24.837L16.7341 29.1689C16.952 29.2997 17.0853 29.5351 17.0853 29.7891V35.3031C17.0853 35.572 17.3681 35.747 17.6085 35.6265L22.9943 32.9337C23.3619 32.7501 23.5939 32.3745 23.5939 31.9634V27.149C23.5939 26.5139 23.2609 25.9253 22.7163 25.5987Z" fill="white"/>
<path d="M40.615 12.4004L33.8677 8.35207C33.5496 8.16107 33.1561 8.14618 32.8245 8.31199L27.4375 11.0055C27.1822 11.133 27.1684 11.4921 27.4132 11.6389L34.633 15.9708C34.8508 16.1016 34.9841 16.337 34.9841 16.591V22.1051C34.9841 22.3739 35.267 22.5487 35.5074 22.4284L40.893 19.7356C41.2606 19.552 41.4928 19.1764 41.4928 18.7655V13.9509C41.4928 13.3158 41.1596 12.7272 40.615 12.4004Z" fill="white"/>
<path d="M77.1255 17.0616V42.0837H70.8754V17.0616H61.2351V12.231H86.7869V17.0616H77.1255Z" fill="#242552"/>
<path d="M96.4482 22.4855C95.0501 22.4855 93.9723 22.9729 93.2175 23.9476C92.4613 24.9223 92.0625 26.2854 92.0202 28.0367H100.919C100.805 26.1864 100.36 24.7988 99.5835 23.8734C98.8069 22.9483 97.7616 22.4855 96.4482 22.4855ZM96.4482 42.5074C93.0015 42.5074 90.3531 41.4872 88.5029 39.4459C86.6524 37.4051 85.7277 34.4281 85.7277 30.5153C85.7277 26.7304 86.6666 23.8204 88.5455 21.7865C90.4234 19.7524 93.0865 18.7356 96.5327 18.7356C99.8239 18.7356 102.338 19.8266 104.075 22.0089C105.813 24.1912 106.681 27.3872 106.681 31.5961V31.7655H91.9776C91.9776 33.9976 92.3909 35.682 93.2175 36.8183C94.0431 37.9559 95.2191 38.5243 96.7446 38.5243C98.849 38.5243 100.177 37.6133 100.728 35.791L106.343 36.2785C104.718 40.4311 101.42 42.5074 96.4482 42.5074Z" fill="#242552"/>
<path d="M125.834 42.0837L119.711 31.7021L117.148 33.4818V42.0837H111.194V10.642H117.148V28.6509L125.326 19.1592H131.725L123.674 28.1001L132.339 42.0837H125.834Z" fill="#242552"/>
<path d="M135.326 42.0837V10.642H141.28V42.0837H135.326Z" fill="#242552"/>
<path d="M156.768 22.4855C155.369 22.4855 154.292 22.9729 153.537 23.9476C152.781 24.9223 152.382 26.2854 152.34 28.0367H161.238C161.125 26.1864 160.68 24.7988 159.903 23.8734C159.126 22.9483 158.081 22.4855 156.768 22.4855ZM156.768 42.5074C153.321 42.5074 150.673 41.4872 148.822 39.4459C146.972 37.4051 146.047 34.4281 146.047 30.5153C146.047 26.7304 146.986 23.8204 148.865 21.7865C150.743 19.7524 153.406 18.7356 156.852 18.7356C160.143 18.7356 162.658 19.8266 164.395 22.0089C166.132 24.1912 167.001 27.3872 167.001 31.5961V31.7655H152.297C152.297 33.9976 152.71 35.682 153.537 36.8183C154.363 37.9559 155.539 38.5243 157.064 38.5243C159.169 38.5243 160.497 37.6133 161.047 35.791L166.662 36.2785C165.038 40.4311 161.739 42.5074 156.768 42.5074Z" fill="#242552"/>
</g>
<defs>
<linearGradient id="paint0_linear_74_40" x1="2.40776" y1="2.40792" x2="45.6709" y2="45.671" gradientUnits="userSpaceOnUse">
<stop stop-color="white"/>
<stop offset="0.00477871" stop-color="#A55BB4"/>
<stop offset="1" stop-color="#704EAC"/>
</linearGradient>
<clipPath id="clip0_74_40">
<rect width="167" height="52.0696" fill="white"/>
</clipPath>
</defs>
</svg>
